<?xml version="1.0" standalone="no"?>
<!DOCTYPE svg PUBLIC "-//W3C//DTD SVG 20010904//EN"
 "http://www.w3.org/TR/2001/REC-SVG-20010904/DTD/svg10.dtd">
<svg version="1.0" xmlns="http://www.w3.org/2000/svg"
 width="48.000000pt" height="48.000000pt" viewBox="0 0 48.000000 48.000000"
 preserveAspectRatio="xMidYMid meet">

<g transform="translate(0.000000,48.000000) scale(0.100000,-0.100000)"
fill="#000000" stroke="none">
<path d="M185 388 c-54 -29 -60 -81 -14 -127 17 -17 36 -31 43 -31 22 0 66
-40 66 -60 0 -26 -34 -43 -69 -35 -22 5 -30 13 -35 36 -8 43 -33 37 -38 -11
l-3 -39 47 -11 c78 -19 139 7 154 66 9 35 -18 69 -81 103 -42 23 -51 33 -53
59 -3 31 -2 32 37 32 36 0 40 -3 43 -27 4 -40 32 -36 36 5 3 27 -1 34 -23 42
-34 13 -85 12 -110 -2z"/>
</g>
</svg>
